<svg id="mountains" enable-background="new 0 0 300 300" height="512" viewBox="0 0 300 300" width="512" xmlns="http://www.w3.org/2000/svg"><g><circle cx="152" cy="145.999" fill="#efefd2" r="92"/><path d="m204 129.999c-8.824 0-16-7.178-16-16s7.176-16 16-16 16 7.178 16 16-7.176 16-16 16zm0-24c-4.41 0-8 3.588-8 8s3.59 8 8 8 8-3.588 8-8-3.59-8-8-8z" fill="#4c241d"/><path d="m154.863 257.962c-2.16 0-3.938-1.723-3.996-3.896-.055-2.207 1.688-4.045 3.895-4.102 5.137-.135 10.289-.648 15.316-1.531 2.164-.377 4.246 1.072 4.633 3.248.379 2.176-1.074 4.25-3.25 4.631-5.41.951-10.961 1.506-16.488 1.648-.035.002-.075.002-.11.002zm-15.957-.748c-.16 0-.32-.01-.484-.029-5.484-.664-10.953-1.742-16.258-3.205-2.129-.586-3.379-2.789-2.793-4.918.59-2.137 2.816-3.377 4.918-2.793 4.926 1.357 10.004 2.357 15.094 2.975 2.195.266 3.758 2.258 3.492 4.451-.246 2.029-1.973 3.519-3.969 3.519zm47.352-4.76c-1.676 0-3.234-1.059-3.793-2.734-.699-2.094.43-4.361 2.523-5.061 4.855-1.623 9.633-3.627 14.199-5.955 1.969-1.01 4.375-.221 5.379 1.746s.223 4.377-1.746 5.379c-4.918 2.51-10.066 4.668-15.293 6.416-.422.141-.851.209-1.269.209zm-78.082-3.713c-.539 0-1.094-.111-1.621-.346-5.035-2.238-9.949-4.873-14.598-7.832-1.863-1.188-2.414-3.66-1.227-5.523 1.184-1.861 3.66-2.41 5.523-1.227 4.316 2.748 8.875 5.193 13.551 7.27 2.02.896 2.926 3.262 2.031 5.279-.663 1.493-2.124 2.379-3.659 2.379zm106.5-10.771c-1.25 0-2.48-.582-3.258-1.676-1.285-1.799-.867-4.297.93-5.58 4.168-2.975 8.152-6.285 11.84-9.844 1.594-1.529 4.125-1.486 5.656.105 1.535 1.59 1.488 4.123-.102 5.656-3.973 3.828-8.262 7.393-12.746 10.594-.703.503-1.516.745-2.32.745zm-133.387-6.332c-.93 0-1.863-.322-2.621-.979-4.168-3.613-8.098-7.564-11.684-11.742-1.438-1.678-1.246-4.203.43-5.641 1.676-1.439 4.207-1.246 5.641.43 3.332 3.881 6.984 7.553 10.855 10.91 1.668 1.447 1.848 3.973.402 5.643-.792.912-1.906 1.379-3.023 1.379zm156.324-15.797c-.852 0-1.707-.271-2.438-.83-1.75-1.348-2.074-3.859-.73-5.609 3.129-4.062 5.977-8.387 8.469-12.852 1.074-1.932 3.512-2.629 5.441-1.543 1.93 1.076 2.621 3.512 1.543 5.441-2.68 4.807-5.746 9.459-9.109 13.832-.789 1.024-1.977 1.561-3.176 1.561zm-177.082-8.391c-1.328 0-2.629-.662-3.391-1.871-2.941-4.678-5.555-9.607-7.766-14.648-.887-2.023.035-4.383 2.059-5.27 2.039-.883 4.383.037 5.27 2.059 2.051 4.68 4.477 9.256 7.211 13.602 1.176 1.869.613 4.338-1.258 5.516-.66.415-1.398.612-2.125.612zm192.59-19.435c-.469 0-.945-.084-1.41-.258-2.066-.779-3.113-3.086-2.332-5.154 1.801-4.783 3.254-9.748 4.328-14.76.457-2.162 2.59-3.539 4.746-3.076 2.16.463 3.539 2.588 3.074 4.748-1.152 5.4-2.723 10.752-4.664 15.908-.601 1.602-2.125 2.592-3.742 2.592zm-205.398-9.772c-1.762 0-3.379-1.178-3.859-2.961-1.43-5.318-2.48-10.795-3.113-16.273-.254-2.195 1.316-4.18 3.512-4.434 2.223-.277 4.184 1.32 4.434 3.512.59 5.09 1.562 10.176 2.895 15.115.574 2.133-.691 4.326-2.824 4.902-.35.094-.702.139-1.045.139zm212.066-21.396c-.082 0-.168-.002-.25-.008-2.207-.137-3.883-2.035-3.746-4.24.137-2.184.203-4.387.207-6.605 0-5.137-.379-10.301-1.125-15.346-.324-2.186 1.188-4.219 3.371-4.543 2.176-.34 4.219 1.186 4.543 3.371.805 5.432 1.211 10.99 1.211 16.523-.004 2.389-.078 4.752-.223 7.096-.132 2.121-1.894 3.752-3.988 3.752zm-215.734-10.266c-.043 0-.086 0-.129-.002-2.207-.068-3.941-1.914-3.875-4.123.172-5.52.754-11.064 1.73-16.477.395-2.174 2.438-3.629 4.648-3.227 2.172.391 3.617 2.471 3.227 4.645-.906 5.029-1.449 10.18-1.605 15.309-.071 2.164-1.848 3.875-3.996 3.875zm211.269-28.107c-1.715 0-3.301-1.111-3.828-2.836-1.488-4.889-3.363-9.717-5.57-14.352-.953-1.994-.105-4.381 1.887-5.332 2.016-.947 4.387-.102 5.332 1.891 2.383 4.992 4.402 10.193 6.008 15.461.641 2.113-.551 4.35-2.664 4.992-.387.119-.782.176-1.165.176zm-205.605-3.256c-.426 0-.859-.07-1.285-.215-2.094-.711-3.211-2.982-2.504-5.074 1.773-5.211 3.957-10.342 6.492-15.254 1.012-1.963 3.426-2.73 5.391-1.719 1.961 1.016 2.73 3.428 1.719 5.391-2.355 4.559-4.383 9.32-6.023 14.156-.568 1.664-2.122 2.715-3.79 2.715zm191.886-25.529c-1.285 0-2.547-.617-3.32-1.764-2.863-4.246-6.07-8.314-9.527-12.092-1.492-1.629-1.383-4.16.25-5.652 1.625-1.488 4.156-1.379 5.648.25 3.723 4.066 7.176 8.447 10.262 13.021 1.234 1.83.75 4.316-1.078 5.553-.688.463-1.465.684-2.235.684zm-177.273-2.787c-.809 0-1.629-.246-2.336-.756-1.793-1.293-2.195-3.793-.902-5.584 3.219-4.465 6.805-8.732 10.652-12.688 1.543-1.586 4.074-1.615 5.656-.078 1.582 1.541 1.617 4.074.078 5.658-3.578 3.674-6.91 7.641-9.902 11.787-.781 1.084-2.004 1.661-3.246 1.661zm155.754-20.741c-.887 0-1.777-.293-2.52-.896-3.977-3.234-8.223-6.193-12.621-8.799-1.898-1.125-2.527-3.578-1.402-5.479 1.125-1.898 3.578-2.529 5.48-1.404 4.738 2.805 9.309 5.992 13.59 9.475 1.715 1.395 1.973 3.914.578 5.627-.789.972-1.941 1.476-3.105 1.476zm-133.504-2.099c-1.207 0-2.398-.543-3.184-1.574-1.34-1.758-1.004-4.268.754-5.607 4.391-3.346 9.062-6.389 13.891-9.049 1.938-1.061 4.363-.363 5.434 1.574 1.066 1.936.359 4.367-1.574 5.434-4.484 2.469-8.824 5.297-12.898 8.404-.728.55-1.579.818-2.423.818zm106.098-14.137c-.504 0-1.012-.096-1.508-.297-4.742-1.928-9.668-3.516-14.645-4.719-2.145-.52-3.465-2.682-2.945-4.828.52-2.148 2.684-3.455 4.828-2.949 5.359 1.297 10.668 3.008 15.777 5.086 2.047.832 3.031 3.166 2.199 5.213-.632 1.553-2.128 2.494-3.706 2.494zm-78.172-1.24c-1.625 0-3.156-1-3.75-2.615-.77-2.072.289-4.373 2.363-5.139 5.18-1.916 10.543-3.457 15.941-4.58 2.172-.451 4.281.938 4.734 3.102.449 2.162-.941 4.281-3.102 4.73-5.012 1.043-9.992 2.475-14.801 4.252-.455.168-.924.25-1.385.25zm47.199-6.256c-.117 0-.238-.006-.359-.016-5.074-.455-10.312-.535-15.395-.24-2.199.104-4.098-1.559-4.223-3.766-.129-2.205 1.559-4.096 3.762-4.223 5.477-.314 11.105-.225 16.566.26 2.199.197 3.824 2.139 3.629 4.34-.187 2.08-1.929 3.645-3.98 3.645z" fill="#4c241d"/><g><path d="m86 153.999-54 108h108z" fill="#e66353"/><path d="m140 265.999h-108c-1.387 0-2.672-.719-3.402-1.896-.73-1.18-.797-2.652-.176-3.893l54-108c1.359-2.711 5.797-2.711 7.156 0l54 108c.621 1.24.555 2.713-.176 3.893-.73 1.177-2.015 1.896-3.402 1.896zm-101.527-8h95.055l-47.528-95.056z" fill="#4c241d"/></g><g><path d="m178.613 224.773-18.613 37.226h108l-54-108-19.121 38.242" fill="#a9ba5a"/><path d="m268 265.999h-108c-1.387 0-2.672-.719-3.402-1.896-.73-1.18-.797-2.652-.176-3.893l18.613-37.227c.988-1.977 3.391-2.775 5.367-1.789 1.977.988 2.777 3.391 1.789 5.367l-15.719 31.438h95.055l-47.527-95.056-15.543 31.088c-.992 1.975-3.395 2.779-5.367 1.789-1.977-.988-2.777-3.391-1.789-5.367l19.121-38.242c1.359-2.711 5.797-2.711 7.156 0l54 108c.621 1.24.555 2.713-.176 3.893-.73 1.176-2.015 1.895-3.402 1.895z" fill="#4c241d"/></g><g><path d="m150 101.999-54 160h108z" fill="#ffce56"/><path d="m204 265.999h-108c-1.289 0-2.496-.621-3.25-1.668-.75-1.047-.953-2.391-.539-3.611l54-160c.547-1.625 2.074-2.721 3.789-2.721s3.242 1.096 3.789 2.721l54 160c.414 1.221.211 2.564-.539 3.611-.754 1.047-1.961 1.668-3.25 1.668zm-102.43-8h96.859l-48.429-143.492z" fill="#4c241d"/></g><g fill="#4c241d"><circle cx="174" cy="83.999" r="4.529"/><path d="m212 245.999h-124c-2.211 0-4-1.791-4-4s1.789-4 4-4h124c2.211 0 4 1.791 4 4s-1.789 4-4 4z"/></g></g></svg>